<svg xmlns="http://www.w3.org/2000/svg" viewBox="0 0 100 100"><title>GMLogo_v1</title><rect width="100" height="100" style="fill:#0033a0"/><rect x="25.26" y="67.01" width="50" height="8.25" style="fill:#fff"/><polygon points="50 25.26 58.5 25.26 62.64 52.81 66.88 25.26 75.26 25.26 75.26 62.89 69.59 62.89 69.59 34.55 64.92 62.89 60.16 62.89 55.67 34.55 55.67 62.89 50 62.89 50 25.26" style="fill:#fff"/><path d="M38.14,37.11h6.19V34.46c0-2.6,0-10.07-9.65-10.07-9.42,0-9.42,8.53-9.42,10.07V53.95c0,5.72,2.08,9.47,7.5,9.5a7.6,7.6,0,0,0,5.9-2.75v2.2l5.15,0.05V42.27H35.05v4.64h3.09v5.93c0,3-.9,5.07-3.63,5.07s-3.59-2.18-3.59-5.07V34.47c0-1.49,0-4.9,3.59-4.9s3.63,3.46,3.63,4.9v2.64Z" style="fill:#fff"/></svg>